<svg xmlns:svg="http://www.w3.org/2000/svg" xmlns="http://www.w3.org/2000/svg" version="1.0" width="1024" height="259" viewBox="-8.6494629 -8.6494629 1206.8204258 305.6143558" id="svg2575">
  <defs id="defs2577"/>
  <path d="M 1186.0449,44.83399 C 1186.0449,50.38087 1182.0947,54.11134 1177.4365,54.11134 L 1177.4365,54.08204 C 1172.6562,54.11134 1168.7988,50.38087 1168.7988,44.83399 C 1168.7988,39.292 1172.6562,35.59083 1177.4365,35.59083 C 1182.0947,35.59083 1186.0449,39.292 1186.0449,44.83399 M 1189.5215,44.83399 C 1189.5215,37.2168 1183.8086,32.78322 1177.4365,32.78322 C 1171.0254,32.78322 1165.3223,37.2168 1165.3223,44.83399 C 1165.3223,52.45607 1171.0254,56.88478 1177.4365,56.88478 C 1183.8086,56.88478 1189.5215,52.45607 1189.5215,44.83399 M 1175.4297,45.84962 L 1176.7334,45.84962 L 1179.7314,51.3086 L 1183.0176,51.3086 L 1179.7021,45.63478 C 1181.4209,45.50294 1182.8223,44.64357 1182.8223,42.25099 C 1182.8223,39.292 1180.8496,38.33009 1177.5,38.33009 L 1172.6562,38.33009 L 1172.6562,51.3086 L 1175.4297,51.3086 L 1175.4297,45.84962 z M 1175.4297,43.65235 L 1175.4297,40.52735 L 1177.3682,40.52735 C 1178.4277,40.52735 1179.8584,40.625 1179.8584,41.9629 C 1179.8584,43.39844 1179.1211,43.65235 1177.8809,43.65235 L 1175.4297,43.65235 z" id="path2499" style="fill:#000000;fill-opacity:1;fill-rule:nonzero;stroke:none"/>
  <path d="M 998.65234,288.31544 L 0,288.31544 L 11.20117,258.59375 C 22.27539,229.20899 81.68457,71.74805 87.31445,58.96974 C 93.93555,43.11037 104.80957,26.98732 118.35449,17.17287 C 136.76269,4.38478 157.06054,-0.17577 177.93945,0.01954 L 180.63477,0 L 1175.3906,0 L 1164.0332,29.79982 C 1143.208,84.4336 1092.4121,217.6172 1087.1045,230.82033 C 1079.0186,251.40138 1067.1191,263.59375 1053.8379,272.74903 C 1042.0068,280.67384 1024.6728,288.31544 998.65234,288.31544" id="path2501" style="fill:#211e1e;fill-opacity:1;fill-rule:nonzero;stroke:none"/>
  <path d="M 1159.5508,10.91798 L 1153.8379,25.91309 C 1133.0322,80.49805 1082.2754,213.59375 1076.9678,226.792 C 1069.7998,245.0293 1059.5019,255.58594 1047.7051,263.72072 C 1037.4805,270.5713 1022.2949,277.40724 998.65234,277.40724 L 15.7666,277.40724 L 21.40625,262.4463 C 32.45117,233.13478 91.67969,76.1084 97.29004,63.36427 C 103.41797,48.63282 113.19824,34.375 124.6582,26.06934 C 140.81543,14.85353 158.70605,10.7422 177.86133,10.92774 L 180.65918,10.91798 L 1159.5508,10.91798 z" id="path2503" style="fill:#eb1928;fill-opacity:1;fill-rule:nonzero;stroke:none"/>
  <path d="M 1107.0996,24.4336 C 1086.8848,80.7129 1040.7861,209.07228 1035.8838,222.00684 C 1030.1562,237.5 1022.3145,245.98634 1013.0566,252.76368 C 1005.4443,258.16895 993.91113,263.88673 974.76563,263.88673 L 68.15918,263.88673 C 80.83496,228.16895 133.19824,80.8252 138.2959,68.51563 C 143.53028,55.07325 151.47949,43.20313 159.70703,36.875 C 172.07032,27.75392 185.78125,24.28712 201.57227,24.44825 L 204.3457,24.4336 L 1107.0996,24.4336 z" id="path2505" style="fill:#ffffff;fill-opacity:1;fill-rule:nonzero;stroke:none"/>
</svg>